<svg width="80" height="80" viewBox="0 0 80 80" fill="none" xmlns="http://www.w3.org/2000/svg">
<path d="M33.75 12.4999C32.7554 12.4999 31.8016 12.895 31.0983 13.5983C30.3951 14.3015 30 15.2553 30 16.2499V23.7499C30.0014 24.5361 30.2522 25.3016 30.7162 25.9362L28.375 27.4999H27.5C25.843 27.5019 24.2544 28.161 23.0828 29.3327C21.9111 30.5044 21.252 32.0929 21.25 33.7499V33.9799C20.5214 34.2375 19.8901 34.7139 19.4426 35.344C18.9951 35.9741 18.7532 36.7271 18.75 37.4999H21.25C21.25 37.1684 21.3817 36.8504 21.6161 36.616C21.8505 36.3816 22.1685 36.2499 22.5 36.2499C22.8315 36.2499 23.1495 36.3816 23.3839 36.616C23.6183 36.8504 23.75 37.1684 23.75 37.4999H26.25C26.2468 36.7271 26.0049 35.9741 25.5574 35.344C25.1099 34.7139 24.4786 34.2375 23.75 33.9799V33.7499C23.75 32.7553 24.1451 31.8015 24.8483 31.0983C25.5516 30.395 26.5054 29.9999 27.5 29.9999V38.7499C27.4998 38.9438 27.5448 39.1351 27.6312 39.3087L30.1312 44.3087C30.2351 44.5164 30.3948 44.6912 30.5924 44.8133C30.79 44.9354 31.0177 45 31.25 44.9999H48.75C48.9834 45.0012 49.2124 44.9371 49.4112 44.8149C49.61 44.6928 49.7707 44.5174 49.875 44.3087L52.375 39.3087C52.4593 39.1346 52.5021 38.9433 52.5 38.7499V29.9999C53.4946 29.9999 54.4484 30.395 55.1516 31.0983C55.8549 31.8015 56.25 32.7553 56.25 33.7499V33.9799C55.5214 34.2375 54.8901 34.7139 54.4426 35.344C53.9951 35.9741 53.7532 36.7271 53.75 37.4999H56.25C56.25 37.1684 56.3817 36.8504 56.6161 36.616C56.8505 36.3816 57.1685 36.2499 57.5 36.2499C57.8315 36.2499 58.1495 36.3816 58.3839 36.616C58.6183 36.8504 58.75 37.1684 58.75 37.4999H61.25C61.2468 36.7271 61.0049 35.9741 60.5574 35.344C60.1099 34.7139 59.4786 34.2375 58.75 33.9799V33.7499C58.748 32.0929 58.0889 30.5044 56.9172 29.3327C55.7456 28.161 54.157 27.5019 52.5 27.4999H51.625L49.28 25.9362C49.7454 25.302 49.9975 24.5365 50 23.7499V16.2499C50 15.2553 49.6049 14.3015 48.9016 13.5983C48.1984 12.895 47.2446 12.4999 46.25 12.4999H41.25V9.76991C42.084 9.47504 42.7869 8.89482 43.2345 8.13181C43.6821 7.36879 43.8456 6.47211 43.696 5.60024C43.5464 4.72837 43.0934 3.93746 42.4171 3.36728C41.7407 2.7971 40.8846 2.48437 40 2.48438C39.1154 2.48437 38.2593 2.7971 37.5829 3.36728C36.9066 3.93746 36.4536 4.72837 36.304 5.60024C36.1544 6.47211 36.3179 7.36879 36.7655 8.13181C37.2131 8.89482 37.916 9.47504 38.75 9.76991V12.4999H33.75ZM40 4.99991C40.2472 4.99991 40.4889 5.07322 40.6945 5.21057C40.9 5.34792 41.0602 5.54315 41.1548 5.77155C41.2495 5.99996 41.2742 6.2513 41.226 6.49377C41.1777 6.73625 41.0587 6.95898 40.8839 7.13379C40.7091 7.30861 40.4863 7.42766 40.2439 7.47589C40.0014 7.52412 39.7501 7.49937 39.5216 7.40476C39.2932 7.31015 39.098 7.14993 38.9607 6.94437C38.8233 6.73881 38.75 6.49714 38.75 6.24991C38.75 5.91839 38.8817 5.60045 39.1161 5.36603C39.3505 5.13161 39.6685 4.99991 40 4.99991ZM47.9775 42.4999H32.0225L30.7725 39.9999H49.2275L47.9775 42.4999ZM35.1775 37.4999C35.4503 36.4279 36.0726 35.4774 36.9459 34.7985C37.8192 34.1196 38.8938 33.7511 40 33.7511C41.1062 33.7511 42.1808 34.1196 43.0541 34.7985C43.9274 35.4774 44.5497 36.4279 44.8225 37.4999H35.1775ZM50 37.4999H47.3875C47.0937 35.753 46.1904 34.1668 44.8379 33.0228C43.4855 31.8788 41.7714 31.2511 40 31.2511C38.2286 31.2511 36.5145 31.8788 35.1621 33.0228C33.8096 34.1668 32.9063 35.753 32.6125 37.4999H30V29.4187L32.875 27.4999H47.125L50 29.4187V37.4999ZM42.5 24.9999H37.5V23.7499H42.5V24.9999ZM47.5 16.2499V23.7499C47.5 24.0814 47.3683 24.3994 47.1339 24.6338C46.8995 24.8682 46.5815 24.9999 46.25 24.9999H45V22.4999C45 22.1684 44.8683 21.8504 44.6339 21.616C44.3995 21.3816 44.0815 21.2499 43.75 21.2499H36.25C35.9185 21.2499 35.6005 21.3816 35.3661 21.616C35.1317 21.8504 35 22.1684 35 22.4999V24.9999H33.75C33.4185 24.9999 33.1005 24.8682 32.8661 24.6338C32.6317 24.3994 32.5 24.0814 32.5 23.7499V16.2499C32.5 15.9184 32.6317 15.6004 32.8661 15.366C33.1005 15.1316 33.4185 14.9999 33.75 14.9999H46.25C46.5815 14.9999 46.8995 15.1316 47.1339 15.366C47.3683 15.6004 47.5 15.9184 47.5 16.2499Z" fill="white"/>
<path d="M35 17.5H37.5V20H35V17.5Z" fill="white"/>
<path d="M42.5 17.5H45V20H42.5V17.5Z" fill="white"/>
<path d="M68.75 10H67.5V12.5H68.75C69.7446 12.5 70.6984 12.8951 71.4016 13.5983C72.1049 14.3016 72.5 15.2554 72.5 16.25V50H7.5V16.25C7.5 15.2554 7.89509 14.3016 8.59835 13.5983C9.30161 12.8951 10.2554 12.5 11.25 12.5H12.5V10H11.25C9.59301 10.002 8.00445 10.6611 6.83277 11.8328C5.6611 13.0044 5.00198 14.593 5 16.25V56.25C5.00198 57.907 5.6611 59.4956 6.83277 60.6672C8.00445 61.8389 9.59301 62.498 11.25 62.5H29.8338L28.8963 70H26.25C25.2554 70 24.3016 70.3951 23.5983 71.0984C22.8951 71.8016 22.5 72.7554 22.5 73.75C22.5 74.7446 22.8951 75.6984 23.5983 76.4016C24.3016 77.1049 25.2554 77.5 26.25 77.5H53.75C54.7446 77.5 55.6984 77.1049 56.4016 76.4016C57.1049 75.6984 57.5 74.7446 57.5 73.75C57.5 72.7554 57.1049 71.8016 56.4016 71.0984C55.6984 70.3951 54.7446 70 53.75 70H51.1037L50.1662 62.5H68.75C70.407 62.498 71.9956 61.8389 73.1672 60.6672C74.3389 59.4956 74.998 57.907 75 56.25V16.25C74.998 14.593 74.3389 13.0044 73.1672 11.8328C71.9956 10.6611 70.407 10.002 68.75 10ZM55 73.75C55 74.0815 54.8683 74.3995 54.6339 74.6339C54.3995 74.8683 54.0815 75 53.75 75H26.25C25.9185 75 25.6005 74.8683 25.3661 74.6339C25.1317 74.3995 25 74.0815 25 73.75C25 73.4185 25.1317 73.1005 25.3661 72.8661C25.6005 72.6317 25.9185 72.5 26.25 72.5H53.75C54.0815 72.5 54.3995 72.6317 54.6339 72.8661C54.8683 73.1005 55 73.4185 55 73.75ZM48.5838 70H31.4162L32.3537 62.5H47.6463L48.5838 70ZM68.75 60H11.25C10.2554 60 9.30161 59.6049 8.59835 58.9016C7.89509 58.1984 7.5 57.2446 7.5 56.25V52.5H72.5V56.25C72.5 57.2446 72.1049 58.1984 71.4016 58.9016C70.6984 59.6049 69.7446 60 68.75 60Z" fill="white"/>
<path d="M48.75 10H57.5V12.5H48.75V10Z" fill="white"/>
<path d="M22.5 10H31.25V12.5H22.5V10Z" fill="white"/>
<path d="M65 55H67.5V57.5H65V55Z" fill="white"/>
<path d="M60 10H65C65.3315 10 65.6495 9.8683 65.8839 9.63388C66.1183 9.39946 66.25 9.08152 66.25 8.75V3.75C66.25 3.41848 66.1183 3.10054 65.8839 2.86612C65.6495 2.6317 65.3315 2.5 65 2.5H60C59.6685 2.5 59.3505 2.6317 59.1161 2.86612C58.8817 3.10054 58.75 3.41848 58.75 3.75V8.75C58.75 9.08152 58.8817 9.39946 59.1161 9.63388C59.3505 9.8683 59.6685 10 60 10ZM61.25 5H63.75V7.5H61.25V5Z" fill="white"/>
<path d="M60.8838 18.3837L63.3838 15.8837C63.6182 15.6494 63.7499 15.3315 63.75 15V12.5H61.25V14.4825L59.4825 16.25H52.5V18.75H60C60.3315 18.7499 60.6494 18.6182 60.8838 18.3837Z" fill="white"/>
<path d="M65 37.5H70V40H65V37.5Z" fill="white"/>
<path d="M65 42.5H70V45H65V42.5Z" fill="white"/>
<path d="M66.25 21.25C65.5083 21.25 64.7833 21.4699 64.1666 21.882C63.5499 22.294 63.0693 22.8797 62.7855 23.5649C62.5016 24.2502 62.4274 25.0042 62.5721 25.7316C62.7168 26.459 63.0739 27.1272 63.5984 27.6516C64.1228 28.1761 64.791 28.5332 65.5184 28.6779C66.2458 28.8226 66.9998 28.7484 67.6851 28.4645C68.3703 28.1807 68.956 27.7001 69.368 27.0834C69.7801 26.4667 70 25.7417 70 25C70 24.0054 69.6049 23.0516 68.9017 22.3483C68.1984 21.6451 67.2446 21.25 66.25 21.25ZM66.25 26.25C66.0028 26.25 65.7611 26.1767 65.5555 26.0393C65.35 25.902 65.1898 25.7068 65.0952 25.4784C65.0005 25.2499 64.9758 24.9986 65.024 24.7561C65.0723 24.5137 65.1913 24.2909 65.3661 24.1161C65.5409 23.9413 65.7637 23.8222 66.0061 23.774C66.2486 23.7258 66.5 23.7505 66.7284 23.8451C66.9568 23.9398 67.152 24.1 67.2893 24.3055C67.4267 24.5111 67.5 24.7528 67.5 25C67.5 25.3315 67.3683 25.6495 67.1339 25.8839C66.8995 26.1183 66.5815 26.25 66.25 26.25Z" fill="white"/>
<path d="M55.8837 40.3662L54.1162 42.1337L56.6162 44.6337C56.8506 44.8681 57.1685 44.9999 57.5 45H62.5V42.5H58.0175L55.8837 40.3662Z" fill="white"/>
<path d="M55 23.75H60V26.25H55V23.75Z" fill="white"/>
<path d="M15 10H20C20.3315 10 20.6495 9.8683 20.8839 9.63388C21.1183 9.39946 21.25 9.08152 21.25 8.75V3.75C21.25 3.41848 21.1183 3.10054 20.8839 2.86612C20.6495 2.6317 20.3315 2.5 20 2.5H15C14.6685 2.5 14.3505 2.6317 14.1161 2.86612C13.8817 3.10054 13.75 3.41848 13.75 3.75V8.75C13.75 9.08152 13.8817 9.39946 14.1161 9.63388C14.3505 9.8683 14.6685 10 15 10ZM16.25 5H18.75V7.5H16.25V5Z" fill="white"/>
<path d="M16.25 12.5V15C16.2501 15.3315 16.3818 15.6494 16.6163 15.8837L19.1163 18.3837C19.3506 18.6182 19.6685 18.7499 20 18.75H27.5V16.25H20.5175L18.75 14.4825V12.5H16.25Z" fill="white"/>
<path d="M10 37.5H15V40H10V37.5Z" fill="white"/>
<path d="M10 42.5H15V45H10V42.5Z" fill="white"/>
<path d="M10 25C10 25.7417 10.2199 26.4667 10.632 27.0834C11.044 27.7001 11.6297 28.1807 12.3149 28.4645C13.0002 28.7484 13.7542 28.8226 14.4816 28.6779C15.209 28.5332 15.8772 28.1761 16.4016 27.6516C16.9261 27.1272 17.2832 26.459 17.4279 25.7316C17.5726 25.0042 17.4984 24.2502 17.2145 23.5649C16.9307 22.8797 16.4501 22.294 15.8334 21.882C15.2167 21.4699 14.4917 21.25 13.75 21.25C12.7554 21.25 11.8016 21.6451 11.0983 22.3483C10.3951 23.0516 10 24.0054 10 25ZM13.75 23.75C13.9972 23.75 14.2389 23.8233 14.4445 23.9607C14.65 24.098 14.8102 24.2932 14.9048 24.5216C14.9995 24.7501 15.0242 25.0014 14.976 25.2439C14.9277 25.4863 14.8087 25.7091 14.6339 25.8839C14.4591 26.0587 14.2363 26.1777 13.9939 26.226C13.7514 26.2742 13.5001 26.2495 13.2716 26.1548C13.0432 26.0602 12.848 25.9 12.7107 25.6945C12.5733 25.4889 12.5 25.2472 12.5 25C12.5 24.6685 12.6317 24.3505 12.8661 24.1161C13.1005 23.8817 13.4185 23.75 13.75 23.75Z" fill="white"/>
<path d="M17.5 42.5V45H22.5C22.8315 44.9999 23.1494 44.8681 23.3838 44.6337L25.8838 42.1337L24.1162 40.3662L21.9825 42.5H17.5Z" fill="white"/>
<path d="M20 23.75H25V26.25H20V23.75Z" fill="white"/>
</svg>
