<svg width="80" height="80" viewBox="0 0 80 80" fill="none" xmlns="http://www.w3.org/2000/svg">
<g clip-path="url(#clip0)">
<path d="M24.0001 8.00073H6.66699V10.6674H24.0001V8.00073Z" fill="white"/>
<path d="M24.0001 13.334H6.66699V16.0006H24.0001V13.334Z" fill="white"/>
<path d="M18.6668 18.6672H6.66699V21.3339H18.6668V18.6672Z" fill="white"/>
<path d="M18.6668 24.0005H6.66699V26.6671H18.6668V24.0005Z" fill="white"/>
<path d="M80 77.3333H0.000976562V79.9999H80V77.3333Z" fill="white"/>
<path d="M77.1931 11.4047L71.8599 0.738172C71.531 0.07918 70.7305 -0.188483 70.0716 0.140346C70.0712 0.140513 70.0709 0.140679 70.0706 0.140846L59.404 5.47411C58.745 5.80328 58.4775 6.60443 58.8067 7.26342C59.1359 7.92242 59.937 8.18991 60.596 7.86075L68.3212 4.0008L66.2133 10.0194C56.9479 36.4071 33.0834 54.9195 5.2207 57.3335L5.44737 60.0001C34.3598 57.4955 59.1224 38.2829 68.7319 10.8994L70.8839 4.75012L74.8065 12.5967C75.1357 13.2557 75.9368 13.5232 76.5958 13.194C77.255 12.8649 77.5223 12.0639 77.1931 11.4047Z" fill="white"/>
<path d="M16.0005 64H6.6673C5.93098 64 5.33398 64.597 5.33398 65.3333V73.3332C5.33398 74.0695 5.93098 74.6665 6.6673 74.6665H16.0005C16.7368 74.6665 17.3338 74.0695 17.3338 73.3332V65.3333C17.3338 64.597 16.7368 64 16.0005 64ZM14.6672 71.9999H8.00062V66.6666H14.6672V71.9999Z" fill="white"/>
<path d="M30.6665 60.0002H21.3333C20.597 60.0002 20 60.5972 20 61.3336V73.3334C20 74.0697 20.597 74.6667 21.3333 74.6667H30.6665C31.4029 74.6667 31.9999 74.0697 31.9999 73.3334V61.3336C31.9999 60.5972 31.4029 60.0002 30.6665 60.0002ZM29.3332 72.0001H22.6666V62.6669H29.3332V72.0001Z" fill="white"/>
<path d="M45.3335 53.3335H36.0003C35.264 53.3335 34.667 53.9305 34.667 54.6668V73.3332C34.667 74.0696 35.264 74.6666 36.0003 74.6666H45.3335C46.0698 74.6666 46.6668 74.0696 46.6668 73.3332V54.6668C46.6668 53.9305 46.0698 53.3335 45.3335 53.3335ZM44.0002 71.9999H37.3336V56.0001H44.0002V71.9999Z" fill="white"/>
<path d="M59.9995 44.0005H50.6663C49.93 44.0005 49.333 44.5975 49.333 45.3338V73.3335C49.333 74.0698 49.93 74.6668 50.6663 74.6668H59.9995C60.7359 74.6668 61.3329 74.0698 61.3329 73.3335V45.3338C61.3329 44.5975 60.7359 44.0005 59.9995 44.0005ZM58.6662 72.0001H51.9996V46.6671H58.6662V72.0001Z" fill="white"/>
<path d="M74.6665 25.334H65.3333C64.597 25.334 64 25.931 64 26.6673V73.3334C64 74.0697 64.597 74.6667 65.3333 74.6667H74.6665C75.4029 74.6667 75.9998 74.0697 75.9998 73.3334V26.6673C75.9998 25.931 75.4029 25.334 74.6665 25.334ZM73.3332 72.0001H66.6666V28.0006H73.3332V72.0001Z" fill="white"/>
</g>
<defs>
<clipPath id="clip0">
<rect width="80" height="80" fill="white"/>
</clipPath>
</defs>
</svg>
