<svg width="80" height="80" viewBox="0 0 80 80" fill="none" xmlns="http://www.w3.org/2000/svg">
<g clip-path="url(#clip0)">
<path d="M79.9907 17.3404C79.9861 13.6612 77.0047 10.6791 73.3248 10.6746H71.9916V13.3409H73.3248C75.5335 13.3409 77.3243 15.1317 77.3243 17.3404L77.3308 53.3363H2.66636V17.3404C2.66636 15.1317 4.45716 13.3409 6.66589 13.3409H7.99907V10.6746H6.66589C2.98598 10.6791 0.00455677 13.6612 0 17.3404V58.669C0.00455677 62.3489 2.98598 65.3303 6.66589 65.3349H31.4325L27.0632 77.3335H22.664V79.9998H57.3266V77.3335H52.9274L48.5666 65.3349H73.3339C77.0138 65.3303 79.9959 62.3489 79.9998 58.669V54.6694L79.9907 17.3404ZM50.0944 77.3335H29.9047L34.2694 65.3349H45.7349L50.0944 77.3335ZM73.3339 62.6685H6.66589C4.45716 62.6685 2.66636 60.8777 2.66636 58.669V56.0026H77.3321V58.669C77.3321 60.8777 75.5426 62.6678 73.3339 62.6685Z" fill="white"/>
<path d="M69.3346 50.6698V6.67492C69.3307 2.99566 66.3487 0.01359 62.6687 0.0090332H17.3407C13.6614 0.01359 10.6794 2.99566 10.6748 6.67492V50.6698H13.3412V6.67492C13.3412 4.4662 15.132 2.67539 17.3407 2.67539H62.6687C64.8781 2.67539 66.6683 4.4662 66.6683 6.67492V50.6698H69.3346Z" fill="white"/>
<path d="M17.3311 5.34204H19.9974V8.0084H17.3311V5.34204Z" fill="white"/>
<path d="M22.6641 5.34204H25.3304V8.0084H22.6641V5.34204Z" fill="white"/>
<path d="M27.9971 5.34204H30.6634V8.0084H27.9971V5.34204Z" fill="white"/>
<path d="M62.6591 36.005V25.3395C62.6591 24.6033 62.0622 24.0063 61.3259 24.0063H18.6642C17.928 24.0063 17.3311 24.6033 17.3311 25.3395V36.005C17.3311 36.7412 17.928 37.3381 18.6642 37.3381H41.3283V34.6718H19.9974V26.6727H59.9927V34.6718H58.6596V37.3381H61.3259C62.0622 37.3381 62.6591 36.7412 62.6591 36.005Z" fill="white"/>
<path d="M22.6641 29.3391H25.3304V32.0055H22.6641V29.3391Z" fill="white"/>
<path d="M27.9971 29.3391H30.6634V32.0055H27.9971V29.3391Z" fill="white"/>
<path d="M33.3291 29.3391H35.9955V32.0055H33.3291V29.3391Z" fill="white"/>
<path d="M38.6621 29.3391H41.3285V32.0055H38.6621V29.3391Z" fill="white"/>
<path d="M17.3311 10.6746H62.6591V13.3409H17.3311V10.6746Z" fill="white"/>
<path d="M57.2544 32.9059C57.0891 32.4242 56.664 32.0792 56.1588 32.0167L45.4934 30.6835C45.0853 30.6321 44.6765 30.7727 44.3861 31.0637C44.0952 31.354 43.9545 31.7628 44.0053 32.171L45.3385 42.8364C45.4016 43.3422 45.7473 43.7673 46.229 43.9326C46.7114 44.098 47.2452 43.9743 47.6052 43.6137L49.3276 41.8899L53.7177 46.28C54.2385 46.8008 55.0821 46.8008 55.6029 46.28L59.6024 42.2805C60.1226 41.7597 60.1226 40.9161 59.6024 40.3953L55.2123 36.0052L56.9361 34.2814C57.2961 33.9214 57.4198 33.3876 57.2544 32.9059ZM56.7747 41.3379L54.6603 43.4522L50.2702 39.0621C49.7494 38.542 48.9058 38.542 48.385 39.0621L47.6462 39.801L46.8637 33.5413L53.1299 34.3244L52.3911 35.0626C51.8709 35.5833 51.8709 36.427 52.3911 36.9478L56.7747 41.3379Z" fill="white"/>
</g>
<defs>
<clipPath id="clip0">
<rect width="80" height="80" fill="white"/>
</clipPath>
</defs>
</svg>
