<svg width="80" height="80" viewBox="0 0 80 80" fill="none" xmlns="http://www.w3.org/2000/svg">
<path d="M13.5156 3.90625C12.6538 3.90625 11.9531 4.60693 11.9531 5.46875C11.9531 6.33057 12.6538 7.03125 13.5156 7.03125C14.3774 7.03125 15.0781 6.33057 15.0781 5.46875C15.0781 4.60693 14.3774 3.90625 13.5156 3.90625Z" fill="white"/>
<path d="M18.9844 3.90625C18.1226 3.90625 17.4219 4.60693 17.4219 5.46875C17.4219 6.33057 18.1226 7.03125 18.9844 7.03125C19.8462 7.03125 20.5469 6.33057 20.5469 5.46875C20.5469 4.60693 19.8462 3.90625 18.9844 3.90625Z" fill="white"/>
<path d="M24.4531 3.90625C23.5913 3.90625 22.8906 4.60693 22.8906 5.46875C22.8906 6.33057 23.5913 7.03125 24.4531 7.03125C25.3149 7.03125 26.0156 6.33057 26.0156 5.46875C26.0156 4.60693 25.3149 3.90625 24.4531 3.90625Z" fill="white"/>
<path d="M67.5781 0H12.4219C10.0525 0 8.125 1.92749 8.125 4.29688V68.6731C8.125 69.3207 8.6499 69.845 9.29688 69.845C9.94385 69.845 10.4688 69.3207 10.4688 68.6731V37.3438H30.2014C30.6854 38.7079 31.9879 39.6875 33.5156 39.6875H46.4844C48.0121 39.6875 49.3146 38.7079 49.7986 37.3438H69.5312V75.7031C69.5312 76.7804 68.6554 77.6562 67.5781 77.6562H12.4219C11.3446 77.6562 10.4688 76.7804 10.4688 75.7031V74.1418C10.4688 73.4949 9.94385 72.97 9.29688 72.97C8.6499 72.97 8.125 73.4949 8.125 74.1418V75.7031C8.125 78.0725 10.0525 80 12.4219 80H67.5781C69.9475 80 71.875 78.0725 71.875 75.7031V4.29688C71.875 1.92749 69.9475 0 67.5781 0ZM46.4844 37.3438H33.5156C32.8693 37.3438 32.3438 36.8182 32.3438 36.1719C32.3438 35.5255 32.8693 35 33.5156 35H46.4844C47.1307 35 47.6562 35.5255 47.6562 36.1719C47.6562 36.8182 47.1307 37.3438 46.4844 37.3438ZM69.5312 35H49.7986C49.3146 33.6359 48.0121 32.6562 46.4844 32.6562H33.5156C31.9879 32.6562 30.6854 33.6359 30.2014 35H10.4688V10.9375H65.2344C65.8813 10.9375 66.4062 10.4132 66.4062 9.76562C66.4062 9.11804 65.8813 8.59375 65.2344 8.59375H10.4688V4.29688C10.4688 3.2196 11.3446 2.34375 12.4219 2.34375H67.5781C68.6554 2.34375 69.5312 3.2196 69.5312 4.29688V35Z" fill="white"/>
<path d="M30.5469 18.2812C30.5469 17.6337 30.022 17.1094 29.375 17.1094H20.625C19.978 17.1094 19.4531 17.6337 19.4531 18.2812C19.4531 18.9288 19.978 19.4531 20.625 19.4531H29.375C30.022 19.4531 30.5469 18.9288 30.5469 18.2812Z" fill="white"/>
<path d="M34.0625 19.4531H45.9375C46.5845 19.4531 47.1094 18.9288 47.1094 18.2812C47.1094 17.6337 46.5845 17.1094 45.9375 17.1094H34.0625C33.4155 17.1094 32.8906 17.6337 32.8906 18.2812C32.8906 18.9288 33.4155 19.4531 34.0625 19.4531Z" fill="white"/>
<path d="M59.375 17.1094H50.625C49.978 17.1094 49.4531 17.6337 49.4531 18.2812C49.4531 18.9288 49.978 19.4531 50.625 19.4531H59.375C60.022 19.4531 60.5469 18.9288 60.5469 18.2812C60.5469 17.6337 60.022 17.1094 59.375 17.1094Z" fill="white"/>
<path d="M38.8281 22.9688C38.8281 22.3212 38.3032 21.7969 37.6562 21.7969H26.5625C25.9155 21.7969 25.3906 22.3212 25.3906 22.9688C25.3906 23.6163 25.9155 24.1406 26.5625 24.1406H37.6562C38.3032 24.1406 38.8281 23.6163 38.8281 22.9688Z" fill="white"/>
<path d="M53.4375 21.7969H42.3438C41.6968 21.7969 41.1719 22.3212 41.1719 22.9688C41.1719 23.6163 41.6968 24.1406 42.3438 24.1406H53.4375C54.0845 24.1406 54.6094 23.6163 54.6094 22.9688C54.6094 22.3212 54.0845 21.7969 53.4375 21.7969Z" fill="white"/>
<path d="M48.2812 26.4844H32.5C31.853 26.4844 31.3281 27.0087 31.3281 27.6562C31.3281 28.3038 31.853 28.8281 32.5 28.8281H48.2812C48.9282 28.8281 49.4531 28.3038 49.4531 27.6562C49.4531 27.0087 48.9282 26.4844 48.2812 26.4844Z" fill="white"/>
<path d="M22.3438 41.9531C18.8116 41.9531 15.9375 44.8273 15.9375 48.3594C15.9375 51.8915 18.8116 54.7656 22.3438 54.7656C25.8759 54.7656 28.75 51.8915 28.75 48.3594C28.75 44.8273 25.8759 41.9531 22.3438 41.9531ZM22.3438 52.4219C20.1038 52.4219 18.2812 50.5994 18.2812 48.3594C18.2812 46.1194 20.1038 44.2969 22.3438 44.2969C24.5837 44.2969 26.4062 46.1194 26.4062 48.3594C26.4062 50.5994 24.5837 52.4219 22.3438 52.4219Z" fill="white"/>
<path d="M18.2812 57.1094C17.6343 57.1094 17.1094 57.6337 17.1094 58.2812C17.1094 58.9288 17.6343 59.4531 18.2812 59.4531H26.4062C27.0532 59.4531 27.5781 58.9288 27.5781 58.2812C27.5781 57.6337 27.0532 57.1094 26.4062 57.1094H18.2812Z" fill="white"/>
<path d="M40 41.9531C36.4679 41.9531 33.5938 44.8273 33.5938 48.3594C33.5938 51.8915 36.4679 54.7656 40 54.7656C43.5321 54.7656 46.4062 51.8915 46.4062 48.3594C46.4062 44.8273 43.5321 41.9531 40 41.9531ZM40 52.4219C37.76 52.4219 35.9375 50.5994 35.9375 48.3594C35.9375 46.1194 37.76 44.2969 40 44.2969C42.24 44.2969 44.0625 46.1194 44.0625 48.3594C44.0625 50.5994 42.24 52.4219 40 52.4219Z" fill="white"/>
<path d="M45.2344 58.2812C45.2344 57.6337 44.7095 57.1094 44.0625 57.1094H35.9375C35.2905 57.1094 34.7656 57.6337 34.7656 58.2812C34.7656 58.9288 35.2905 59.4531 35.9375 59.4531H44.0625C44.7095 59.4531 45.2344 58.9288 45.2344 58.2812Z" fill="white"/>
<path d="M57.6562 41.9531C54.1241 41.9531 51.25 44.8273 51.25 48.3594C51.25 51.8915 54.1241 54.7656 57.6562 54.7656C61.1884 54.7656 64.0625 51.8915 64.0625 48.3594C64.0625 44.8273 61.1884 41.9531 57.6562 41.9531ZM57.6562 52.4219C55.4163 52.4219 53.5938 50.5994 53.5938 48.3594C53.5938 46.1194 55.4163 44.2969 57.6562 44.2969C59.8962 44.2969 61.7188 46.1194 61.7188 48.3594C61.7188 50.5994 59.8962 52.4219 57.6562 52.4219Z" fill="white"/>
<path d="M53.5938 57.1094C52.9468 57.1094 52.4219 57.6337 52.4219 58.2812C52.4219 58.9288 52.9468 59.4531 53.5938 59.4531H61.7188C62.3657 59.4531 62.8906 58.9288 62.8906 58.2812C62.8906 57.6337 62.3657 57.1094 61.7188 57.1094H53.5938Z" fill="white"/>
<path d="M15.7812 73.3594C15.7812 74.4366 16.6571 75.3125 17.7344 75.3125H36.0156C37.0929 75.3125 37.9688 74.4366 37.9688 73.3594V64.4531C37.9688 63.3759 37.0929 62.5 36.0156 62.5H17.7344C16.6571 62.5 15.7812 63.3759 15.7812 64.4531V73.3594ZM24.1956 72.9688L26.0455 71.1188C26.5027 70.6616 27.2461 70.6622 27.7032 71.1188L29.5532 72.9688H24.1956ZM18.125 64.8438H35.625V72.9688H32.8674L29.3604 69.4617C27.9895 68.0908 25.7593 68.0908 24.3884 69.4617L20.8807 72.9688H18.125V64.8438Z" fill="white"/>
<path d="M42.0312 64.4531V73.3594C42.0312 74.4366 42.9071 75.3125 43.9844 75.3125H62.2656C63.3429 75.3125 64.2188 74.4366 64.2188 73.3594V64.4531C64.2188 63.3759 63.3429 62.5 62.2656 62.5H43.9844C42.9071 62.5 42.0312 63.3759 42.0312 64.4531ZM50.4456 72.9688L52.2955 71.1188C52.7527 70.6616 53.4961 70.6622 53.9532 71.1188L55.8032 72.9688H50.4456ZM44.375 64.8438H61.875V72.9688H59.1174L55.6104 69.4617C54.2395 68.0908 52.0093 68.0908 50.6384 69.4617L47.1307 72.9688H44.375V64.8438Z" fill="white"/>
</svg>
